<svg width="16" height="16" viewBox="0 0 16 16" fill="none" xmlns="http://www.w3.org/2000/svg">
<path d="M16 4.88889V13.1111C16 13.8773 15.6956 14.6121 15.1539 15.1539C14.6121 15.6956 13.8773 16 13.1111 16H2.88889C2.12271 16 1.38791 15.6956 0.846136 15.1539C0.304364 14.6121 0 13.8773 0 13.1111V4.88889H16ZM3.77778 10.6667C3.48309 10.6667 3.20048 10.7837 2.9921 10.9921C2.78373 11.2005 2.66667 11.4831 2.66667 11.7778C2.66667 12.0725 2.78373 12.3551 2.9921 12.5635C3.20048 12.7718 3.48309 12.8889 3.77778 12.8889C4.07246 12.8889 4.35508 12.7718 4.56345 12.5635C4.77183 12.3551 4.88889 12.0725 4.88889 11.7778C4.88889 11.4831 4.77183 11.2005 4.56345 10.9921C4.35508 10.7837 4.07246 10.6667 3.77778 10.6667ZM8 10.6667C7.70532 10.6667 7.4227 10.7837 7.21433 10.9921C7.00595 11.2005 6.88889 11.4831 6.88889 11.7778C6.88889 12.0725 7.00595 12.3551 7.21433 12.5635C7.4227 12.7718 7.70532 12.8889 8 12.8889C8.29469 12.8889 8.5773 12.7718 8.78567 12.5635C8.99405 12.3551 9.11111 12.0725 9.11111 11.7778C9.11111 11.4831 8.99405 11.2005 8.78567 10.9921C8.5773 10.7837 8.29469 10.6667 8 10.6667ZM3.77778 6.66667C3.48309 6.66667 3.20048 6.78373 2.9921 6.9921C2.78373 7.20048 2.66667 7.48309 2.66667 7.77778C2.66667 8.07246 2.78373 8.35508 2.9921 8.56345C3.20048 8.77183 3.48309 8.88889 3.77778 8.88889C4.07246 8.88889 4.35508 8.77183 4.56345 8.56345C4.77183 8.35508 4.88889 8.07246 4.88889 7.77778C4.88889 7.48309 4.77183 7.20048 4.56345 6.9921C4.35508 6.78373 4.07246 6.66667 3.77778 6.66667ZM8 6.66667C7.70532 6.66667 7.4227 6.78373 7.21433 6.9921C7.00595 7.20048 6.88889 7.48309 6.88889 7.77778C6.88889 8.07246 7.00595 8.35508 7.21433 8.56345C7.4227 8.77183 7.70532 8.88889 8 8.88889C8.29469 8.88889 8.5773 8.77183 8.78567 8.56345C8.99405 8.35508 9.11111 8.07246 9.11111 7.77778C9.11111 7.48309 8.99405 7.20048 8.78567 6.9921C8.5773 6.78373 8.29469 6.66667 8 6.66667ZM12.2222 6.66667C11.9275 6.66667 11.6449 6.78373 11.4365 6.9921C11.2282 7.20048 11.1111 7.48309 11.1111 7.77778C11.1111 8.07246 11.2282 8.35508 11.4365 8.56345C11.6449 8.77183 11.9275 8.88889 12.2222 8.88889C12.5169 8.88889 12.7995 8.77183 13.0079 8.56345C13.2163 8.35508 13.3333 8.07246 13.3333 7.77778C13.3333 7.48309 13.2163 7.20048 13.0079 6.9921C12.7995 6.78373 12.5169 6.66667 12.2222 6.66667ZM13.1111 0C13.8773 0 14.6121 0.304364 15.1539 0.846136C15.6956 1.38791 16 2.12271 16 2.88889V3.55556H0V2.88889C0 2.12271 0.304364 1.38791 0.846136 0.846136C1.38791 0.304364 2.12271 0 2.88889 0H13.1111Z" fill="black"/>
</svg>
