<svg width="16" height="16" viewBox="0 0 16 16" fill="none" xmlns="http://www.w3.org/2000/svg">
<path d="M5.61289 14.7402C5.6739 14.8064 5.70634 14.8939 5.70317 14.9839C5.69999 15.0738 5.66145 15.1588 5.59593 15.2205L4.85923 15.9094C4.79344 15.9705 4.70609 16.003 4.61635 15.9998C4.52662 15.9965 4.44184 15.9578 4.38064 15.8921L0.0903337 11.2684C0.0293656 11.2022 -0.00301751 11.1146 0.000221558 11.0247C0.00346062 10.9347 0.0420601 10.8497 0.107632 10.7881L0.845352 10.1002C0.877904 10.0699 0.916109 10.0463 0.957783 10.0308C0.999457 10.0153 1.04378 10.0081 1.08823 10.0097C1.13267 10.0113 1.17637 10.0217 1.21681 10.0402C1.25726 10.0587 1.29366 10.085 1.32394 10.1175L5.61289 14.7402ZM11.0873 6.04023C11.1482 6.10642 11.1806 6.194 11.1774 6.28393C11.1742 6.37386 11.1356 6.45888 11.07 6.52051L6.43337 10.8519C6.36759 10.913 6.28023 10.9455 6.1905 10.9422C6.10076 10.939 6.01598 10.9003 5.95478 10.8346L4.84803 9.6403C4.78707 9.57411 4.75468 9.48654 4.75792 9.39661C4.76116 9.30667 4.79976 9.22165 4.86533 9.16002L9.50093 4.82867C9.53345 4.79838 9.57163 4.77479 9.61327 4.75927C9.65492 4.74374 9.69922 4.73657 9.74364 4.73818C9.78805 4.73979 9.83172 4.75013 9.87213 4.76863C9.91255 4.78712 9.94892 4.81341 9.97917 4.84597L11.0873 6.04023ZM7.19042 13.2658C7.31728 13.4025 7.30947 13.6186 7.17312 13.7461L6.4354 14.4346C6.40285 14.4649 6.36465 14.4885 6.32297 14.5041C6.2813 14.5196 6.23697 14.5268 6.19253 14.5252C6.14808 14.5236 6.10439 14.5132 6.06394 14.4947C6.0235 14.4762 5.9871 14.4499 5.95682 14.4173L1.66888 9.79361C1.60787 9.72747 1.57543 9.63992 1.57861 9.54998C1.58178 9.46005 1.62032 9.37501 1.68584 9.31333L2.42221 8.62513C2.48799 8.56401 2.57534 8.53151 2.66508 8.53475C2.75481 8.53799 2.83959 8.57672 2.90079 8.64243L7.19042 13.2658ZM14.3346 6.20609C14.3955 6.27232 14.4279 6.35992 14.4245 6.44986C14.4212 6.53979 14.3826 6.62478 14.317 6.68637L13.5796 7.37491C13.5138 7.43609 13.4264 7.46867 13.3366 7.46549C13.2468 7.46231 13.162 7.42363 13.1007 7.35795L8.81205 2.73524C8.75095 2.66914 8.71846 2.58157 8.72163 2.49161C8.72481 2.40165 8.7634 2.31659 8.82901 2.25496L9.56842 1.56473C9.60095 1.53443 9.63912 1.51085 9.68077 1.49532C9.72242 1.47979 9.76672 1.47263 9.81113 1.47423C9.85555 1.47584 9.89922 1.48619 9.93963 1.50468C9.98005 1.52318 10.0164 1.54946 10.0467 1.58203L14.3346 6.20609ZM15.9098 4.73404C15.9707 4.80033 16.003 4.88794 15.9998 4.9779C15.9965 5.06786 15.958 5.15293 15.8925 5.21466L15.1564 5.90286C15.1239 5.93318 15.0858 5.95679 15.0441 5.97234C15.0025 5.9879 14.9582 5.9951 14.9138 5.99352C14.8694 5.99194 14.8257 5.98163 14.7853 5.96316C14.7449 5.9447 14.7085 5.91844 14.6782 5.8859L10.3903 1.26116C10.3293 1.19492 10.2969 1.10733 10.3001 1.01737C10.3033 0.92741 10.3418 0.842322 10.4072 0.78054L11.1439 0.0909839C11.1764 0.0606376 11.2145 0.0369978 11.2561 0.0214209C11.2977 0.00584402 11.342 -0.00136336 11.3864 0.000212303C11.4308 0.00178797 11.4745 0.0121157 11.5149 0.0306028C11.5553 0.0490899 11.5916 0.0753727 11.6218 0.107943L15.9098 4.73404Z" fill="black"/>
</svg>
