<svg width="20" height="20" viewBox="0 0 20 20" fill="none" xmlns="http://www.w3.org/2000/svg">
  <path d="M6.78427 17.1738L15.1178 8.84027L11.1595 4.882L2.82601 13.2155C2.71128 13.3304 2.62978 13.4742 2.59016 13.6316L1.6665 18.3333L6.36728 17.4096C6.52511 17.3702 6.66949 17.2886 6.78427 17.1738ZM17.8081 6.15001C18.1443 5.81367 18.3332 5.35757 18.3332 4.882C18.3332 4.40643 18.1443 3.95032 17.8081 3.61399L16.3858 2.19174C16.0495 1.85551 15.5934 1.66663 15.1178 1.66663C14.6422 1.66663 14.1861 1.85551 13.8498 2.19174L12.4275 3.61399L16.3858 7.57226L17.8081 6.15001Z" fill="#006FFD"/>
</svg>
